<mxfile host="app.diagrams.net" modified="2024-06-28T13:01:09.645Z" agent="Mozilla/5.0 (Macintosh; Intel Mac OS X 10.15; rv:127.0) Gecko/20100101 Firefox/127.0" etag="onYXWc6H3uFcch43Ys3f" version="24.6.4" type="device">
  <diagram name="Page-1" id="ocMT86JC3ptseOkHKrTm">
    <mxGraphModel dx="1434" dy="797" grid="1" gridSize="10" guides="1" tooltips="1" connect="1" arrows="1" fold="1" page="1" pageScale="1" pageWidth="827" pageHeight="1169" math="0" shadow="0">
      <root>
        <mxCell id="0" />
        <mxCell id="1" parent="0" />
        <mxCell id="PP9JTXHq0u4rbg3jrROA-2" value="Utilisateur ( User )" style="shape=umlActor;verticalLabelPosition=bottom;verticalAlign=top;html=1;outlineConnect=0;" vertex="1" parent="1">
          <mxGeometry x="634" y="510" width="30" height="60" as="geometry" />
        </mxCell>
        <mxCell id="PP9JTXHq0u4rbg3jrROA-3" value="" style="endArrow=none;dashed=1;html=1;rounded=0;entryX=0.5;entryY=0.5;entryDx=0;entryDy=0;entryPerimeter=0;" edge="1" parent="1" target="PP9JTXHq0u4rbg3jrROA-2">
          <mxGeometry width="50" height="50" relative="1" as="geometry">
            <mxPoint x="649" y="800" as="sourcePoint" />
            <mxPoint x="654" y="600" as="targetPoint" />
          </mxGeometry>
        </mxCell>
        <mxCell id="PP9JTXHq0u4rbg3jrROA-4" value="system" style="rounded=0;whiteSpace=wrap;html=1;" vertex="1" parent="1">
          <mxGeometry x="819" y="520" width="120" height="60" as="geometry" />
        </mxCell>
        <mxCell id="PP9JTXHq0u4rbg3jrROA-5" value="" style="endArrow=none;dashed=1;html=1;rounded=0;entryX=0.5;entryY=0.5;entryDx=0;entryDy=0;entryPerimeter=0;" edge="1" parent="1" source="PP9JTXHq0u4rbg3jrROA-6">
          <mxGeometry width="50" height="50" relative="1" as="geometry">
            <mxPoint x="881.1299999999997" y="1179.6100000000001" as="sourcePoint" />
            <mxPoint x="876.5" y="580" as="targetPoint" />
          </mxGeometry>
        </mxCell>
        <mxCell id="PP9JTXHq0u4rbg3jrROA-6" value="" style="html=1;points=[];perimeter=orthogonalPerimeter;outlineConnect=0;targetShapes=umlLifeline;portConstraint=eastwest;newEdgeStyle={&quot;edgeStyle&quot;:&quot;elbowEdgeStyle&quot;,&quot;elbow&quot;:&quot;vertical&quot;,&quot;curved&quot;:0,&quot;rounded&quot;:0};" vertex="1" parent="1">
          <mxGeometry x="869" y="670" width="18" height="130" as="geometry" />
        </mxCell>
        <mxCell id="PP9JTXHq0u4rbg3jrROA-7" value="" style="endArrow=classic;html=1;rounded=0;" edge="1" parent="1" target="PP9JTXHq0u4rbg3jrROA-6">
          <mxGeometry width="50" height="50" relative="1" as="geometry">
            <mxPoint x="650" y="670" as="sourcePoint" />
            <mxPoint x="700" y="620" as="targetPoint" />
          </mxGeometry>
        </mxCell>
        <mxCell id="PP9JTXHq0u4rbg3jrROA-8" value="1 : Validation de la route DELETE ()" style="edgeLabel;html=1;align=center;verticalAlign=middle;resizable=0;points=[];" vertex="1" connectable="0" parent="PP9JTXHq0u4rbg3jrROA-7">
          <mxGeometry x="0.3152" y="-3" relative="1" as="geometry">
            <mxPoint x="-34" y="-12" as="offset" />
          </mxGeometry>
        </mxCell>
        <mxCell id="PP9JTXHq0u4rbg3jrROA-9" value="serveur" style="rounded=0;whiteSpace=wrap;html=1;" vertex="1" parent="1">
          <mxGeometry x="1034" y="520" width="120" height="60" as="geometry" />
        </mxCell>
        <mxCell id="PP9JTXHq0u4rbg3jrROA-10" value="" style="endArrow=none;dashed=1;html=1;rounded=0;entryX=0.5;entryY=0.5;entryDx=0;entryDy=0;entryPerimeter=0;" edge="1" parent="1" source="PP9JTXHq0u4rbg3jrROA-11">
          <mxGeometry width="50" height="50" relative="1" as="geometry">
            <mxPoint x="1091.5" y="910" as="sourcePoint" />
            <mxPoint x="1091.5" y="580" as="targetPoint" />
          </mxGeometry>
        </mxCell>
        <mxCell id="PP9JTXHq0u4rbg3jrROA-11" value="" style="html=1;points=[];perimeter=orthogonalPerimeter;outlineConnect=0;targetShapes=umlLifeline;portConstraint=eastwest;newEdgeStyle={&quot;edgeStyle&quot;:&quot;elbowEdgeStyle&quot;,&quot;elbow&quot;:&quot;vertical&quot;,&quot;curved&quot;:0,&quot;rounded&quot;:0};" vertex="1" parent="1">
          <mxGeometry x="1084" y="670" width="18" height="130" as="geometry" />
        </mxCell>
        <mxCell id="PP9JTXHq0u4rbg3jrROA-12" value="BDD" style="rounded=0;whiteSpace=wrap;html=1;" vertex="1" parent="1">
          <mxGeometry x="1244" y="520" width="120" height="60" as="geometry" />
        </mxCell>
        <mxCell id="PP9JTXHq0u4rbg3jrROA-13" value="" style="endArrow=none;dashed=1;html=1;rounded=0;entryX=0.5;entryY=0.5;entryDx=0;entryDy=0;entryPerimeter=0;" edge="1" parent="1" source="PP9JTXHq0u4rbg3jrROA-14">
          <mxGeometry width="50" height="50" relative="1" as="geometry">
            <mxPoint x="1301.5" y="910" as="sourcePoint" />
            <mxPoint x="1301.5" y="580" as="targetPoint" />
          </mxGeometry>
        </mxCell>
        <mxCell id="PP9JTXHq0u4rbg3jrROA-14" value="" style="html=1;points=[];perimeter=orthogonalPerimeter;outlineConnect=0;targetShapes=umlLifeline;portConstraint=eastwest;newEdgeStyle={&quot;edgeStyle&quot;:&quot;elbowEdgeStyle&quot;,&quot;elbow&quot;:&quot;vertical&quot;,&quot;curved&quot;:0,&quot;rounded&quot;:0};" vertex="1" parent="1">
          <mxGeometry x="1294" y="670" width="18" height="130" as="geometry" />
        </mxCell>
        <mxCell id="PP9JTXHq0u4rbg3jrROA-15" value="" style="endArrow=classic;html=1;rounded=0;" edge="1" parent="1" target="PP9JTXHq0u4rbg3jrROA-11">
          <mxGeometry width="50" height="50" relative="1" as="geometry">
            <mxPoint x="889" y="690" as="sourcePoint" />
            <mxPoint x="1044" y="690" as="targetPoint" />
          </mxGeometry>
        </mxCell>
        <mxCell id="PP9JTXHq0u4rbg3jrROA-16" value="1.1 : Envoie la tâche à supprimer" style="text;html=1;align=center;verticalAlign=middle;resizable=0;points=[];autosize=1;strokeColor=none;fillColor=none;" vertex="1" parent="1">
          <mxGeometry x="885" y="659" width="200" height="30" as="geometry" />
        </mxCell>
        <mxCell id="PP9JTXHq0u4rbg3jrROA-17" value="Envoie requête table task" style="text;html=1;align=center;verticalAlign=middle;resizable=0;points=[];autosize=1;strokeColor=none;fillColor=none;" vertex="1" parent="1">
          <mxGeometry x="1118" y="678" width="160" height="30" as="geometry" />
        </mxCell>
        <mxCell id="PP9JTXHq0u4rbg3jrROA-18" value="" style="endArrow=classic;html=1;rounded=0;" edge="1" parent="1" target="PP9JTXHq0u4rbg3jrROA-14">
          <mxGeometry width="50" height="50" relative="1" as="geometry">
            <mxPoint x="1104" y="705" as="sourcePoint" />
            <mxPoint x="1154" y="655" as="targetPoint" />
          </mxGeometry>
        </mxCell>
        <mxCell id="PP9JTXHq0u4rbg3jrROA-19" value="Suppression de la tâche dans la table" style="html=1;align=left;spacingLeft=2;endArrow=block;rounded=0;edgeStyle=orthogonalEdgeStyle;curved=0;rounded=0;" edge="1" parent="1">
          <mxGeometry relative="1" as="geometry">
            <mxPoint x="1312" y="705" as="sourcePoint" />
            <Array as="points">
              <mxPoint x="1342" y="735" />
            </Array>
            <mxPoint x="1317" y="735" as="targetPoint" />
          </mxGeometry>
        </mxCell>
        <mxCell id="PP9JTXHq0u4rbg3jrROA-21" value="" style="endArrow=classic;html=1;rounded=0;" edge="1" parent="1">
          <mxGeometry width="50" height="50" relative="1" as="geometry">
            <mxPoint x="1293" y="743" as="sourcePoint" />
            <mxPoint x="1101" y="743" as="targetPoint" />
          </mxGeometry>
        </mxCell>
        <mxCell id="PP9JTXHq0u4rbg3jrROA-22" value="Renvoie la validation de la requête" style="text;html=1;align=center;verticalAlign=middle;resizable=0;points=[];autosize=1;strokeColor=none;fillColor=none;" vertex="1" parent="1">
          <mxGeometry x="1093" y="713" width="210" height="30" as="geometry" />
        </mxCell>
        <mxCell id="PP9JTXHq0u4rbg3jrROA-23" value="" style="endArrow=classic;html=1;rounded=0;" edge="1" parent="1">
          <mxGeometry width="50" height="50" relative="1" as="geometry">
            <mxPoint x="1084" y="760" as="sourcePoint" />
            <mxPoint x="887" y="760" as="targetPoint" />
          </mxGeometry>
        </mxCell>
        <mxCell id="PP9JTXHq0u4rbg3jrROA-24" value="&lt;div&gt;Affiche message flash succès&lt;/div&gt;" style="text;html=1;align=center;verticalAlign=middle;resizable=0;points=[];autosize=1;strokeColor=none;fillColor=none;" vertex="1" parent="1">
          <mxGeometry x="899" y="730" width="180" height="30" as="geometry" />
        </mxCell>
        <mxCell id="PP9JTXHq0u4rbg3jrROA-25" value="" style="endArrow=classic;html=1;rounded=0;" edge="1" parent="1">
          <mxGeometry width="50" height="50" relative="1" as="geometry">
            <mxPoint x="869" y="773" as="sourcePoint" />
            <mxPoint x="654" y="773" as="targetPoint" />
          </mxGeometry>
        </mxCell>
        <mxCell id="PP9JTXHq0u4rbg3jrROA-26" value="2 : Accès à la liste des tâches" style="text;html=1;align=center;verticalAlign=middle;resizable=0;points=[];autosize=1;strokeColor=none;fillColor=none;" vertex="1" parent="1">
          <mxGeometry x="672" y="743" width="180" height="30" as="geometry" />
        </mxCell>
        <mxCell id="PP9JTXHq0u4rbg3jrROA-52" value="Diagramme de séquence : Suppression d&#39;une tâche" style="rounded=1;whiteSpace=wrap;html=1;" vertex="1" parent="1">
          <mxGeometry x="827" y="440" width="340" height="60" as="geometry" />
        </mxCell>
      </root>
    </mxGraphModel>
  </diagram>
</mxfile>
